<?xml version="1.0" encoding="UTF-8"?><svg id="_レイヤー_1" xmlns="http://www.w3.org/2000/svg" viewBox="0 0 491.95 160.41"><g><path d="m184.39,30.7c.98,0,1.98-.33,2.46-.8v.64s1.24,0,1.24,0l1.01-3.58h-3.45l-.38,1.36h1.23c-.16.54-.72.88-1.23.88-.61,0-1.15-.48-.81-1.81.41-1.43,1.13-1.9,1.7-1.9.54,0,.92.41.77.97l2.35-.15c.28-1.42-1.07-2.24-2.68-2.24-1.81,0-3.97,1.01-4.62,3.31-.7,2.47.84,3.32,2.41,3.32Z"/><path d="m228.94,28.32h1.67c1.07,0,2.74-.57,3.12-1.93.41-1.43-.51-2.01-2.69-2.08h-3.46l-1.76,6.23h2.49l.63-2.22Zm.72-2.57h1.06c.5,0,.64.31.56.63-.09.3-.38.59-.81.59h-1.15l.34-1.22Z"/><polygon points="171.63 28.97 168.73 28.97 170.04 24.31 167.55 24.31 165.8 30.54 171.19 30.54 171.63 28.97"/><polygon points="199.26 30.54 201.01 24.31 198.61 24.31 196.86 30.54 199.26 30.54"/><polygon points="178.1 28.97 175.19 28.97 176.51 24.31 174.02 24.31 172.26 30.54 177.66 30.54 178.1 28.97"/><path d="m192.88,30.69c2.03,0,3.36-.94,3.69-2.14l1.19-4.23h-1.95l-1.17,4.16c-.15.5-.71.75-1.22.75s-.96-.25-.81-.75l1.17-4.16h-2.49l-1.13,4.01c-.49,1.79.59,2.36,2.72,2.36Z"/><path d="m207.85,30.54l.78-1.21h2.05l.09,1.21h2.4l-.64-6.23h-2.56l-4.07,6.23h1.95Zm2.61-4.22l.16,1.65h-1.15l.99-1.65Z"/><path d="m262.13,30.54l.66-2.37h.71l.47,2.37h2.66l-.68-2.64c1.07-.29,1.8-1.01,1.98-1.65.28-1.01-.43-1.94-2.21-1.94h-4.25l-1.76,6.23h2.42Zm1.37-4.86h1.15c.57,0,.78.29.69.6-.09.3-.45.61-1.03.61h-1.15l.34-1.21Z"/><polygon points="202.15 30.54 204.45 30.54 205.8 25.75 207.39 25.75 207.79 24.31 202.31 24.31 201.9 25.75 203.5 25.75 202.15 30.54"/><path d="m272.12,28.82c-.07.23-.54.39-1.04.39-.6,0-1.21-.23-1.13-.81l-2.32.35c-.03,1.33,1.39,1.95,2.95,1.95,1.71,0,3.62-.75,4.01-2.15.63-2.56-3.69-1.67-3.42-2.59.05-.2.45-.33.85-.33.46,0,.95.17,1,.63l2.18-.51c-.27-1.09-1.41-1.55-2.64-1.55-1.72,0-3.56.89-3.89,2.05-.66,2.37,3.68,1.76,3.45,2.57Z"/><polygon points="238.66 30.54 239.1 28.97 236.19 28.97 237.51 24.31 235.02 24.31 233.27 30.54 238.66 30.54"/><path d="m240.7,30.54l.78-1.21h2.05l.09,1.21h2.4l-.64-6.23h-2.56l-4.06,6.23h1.94Zm2.61-4.22l.16,1.65h-1.15l.99-1.65Z"/><polygon points="247.69 30.54 249.98 30.54 250.75 27.83 254.23 24.31 252.1 24.31 250.23 26.25 249.44 24.31 246.88 24.31 248.45 27.83 247.69 30.54"/><polygon points="258.85 30.54 259.28 29.04 255.83 29.04 256.11 28.03 258.85 28.03 259.26 26.6 256.52 26.6 256.78 25.68 260.22 25.68 260.61 24.31 254.76 24.31 253 30.54 258.85 30.54"/><polygon points="136.18 28.1 138.65 28.1 139.05 26.68 136.58 26.68 136.87 25.68 140.14 25.68 140.52 24.31 134.85 24.31 133.09 30.54 135.49 30.54 136.18 28.1"/><path d="m142.75,30.65c1.86,0,4.05-1.1,4.61-3.12.65-2.28-.94-3.35-2.8-3.35s-3.98,1.03-4.64,3.35c-.54,2.06.99,3.12,2.83,3.12Zm-.26-3.12c.38-1.33,1.14-1.93,1.73-1.93.55,0,.96.59.57,1.93-.29,1.04-1.06,1.66-1.64,1.66s-.96-.57-.66-1.66Z"/><path d="m160.19,29.33h2.05l.09,1.21h2.4l-.64-6.23h-2.56l-4.07,6.23h1.95l.78-1.21Zm1.83-3.01l.16,1.65h-1.15l.99-1.65Z"/><path d="m216.32,30.54l.66-2.37h.71l.47,2.37h2.66l-.68-2.64c1.07-.29,1.8-1.01,1.98-1.65.28-1.01-.43-1.94-2.21-1.94h-4.25l-1.76,6.23h2.42Zm1.38-4.86h1.15c.57,0,.78.29.69.6-.09.3-.45.61-1.03.61h-1.15l.34-1.21Z"/><path d="m149.75,30.54l.66-2.37h.71l.47,2.37h2.66l-.68-2.64c1.07-.29,1.8-1.01,1.98-1.65.28-1.01-.43-1.94-2.21-1.94h-4.25l-1.76,6.23h2.42Zm1.38-4.86h1.15c.57,0,.78.29.69.6-.09.3-.45.61-1.03.61h-1.15l.34-1.21Z"/><path d="m184.39,30.7c.98,0,1.98-.33,2.46-.8v.64s1.24,0,1.24,0l1.01-3.58h-3.45l-.38,1.36h1.23c-.16.54-.72.88-1.23.88-.61,0-1.15-.48-.81-1.81.41-1.43,1.13-1.9,1.7-1.9.54,0,.92.41.77.97l2.35-.15c.28-1.42-1.07-2.24-2.68-2.24-1.81,0-3.97,1.01-4.62,3.31-.7,2.47.84,3.32,2.41,3.32Z"/><path d="m228.94,28.32h1.67c1.07,0,2.74-.57,3.12-1.93.41-1.43-.51-2.01-2.69-2.08h-3.46l-1.76,6.23h2.49l.63-2.22Zm.72-2.57h1.06c.5,0,.64.31.56.63-.09.3-.38.59-.81.59h-1.15l.34-1.22Z"/><polygon points="171.63 28.97 168.73 28.97 170.04 24.31 167.55 24.31 165.8 30.54 171.19 30.54 171.63 28.97"/><polygon points="199.26 30.54 201.01 24.31 198.61 24.31 196.86 30.54 199.26 30.54"/><polygon points="178.1 28.97 175.19 28.97 176.51 24.31 174.02 24.31 172.26 30.54 177.66 30.54 178.1 28.97"/><path d="m192.88,30.69c2.03,0,3.36-.94,3.69-2.14l1.19-4.23h-1.95l-1.17,4.16c-.15.5-.71.75-1.22.75s-.96-.25-.81-.75l1.17-4.16h-2.49l-1.13,4.01c-.49,1.79.59,2.36,2.72,2.36Z"/><path d="m207.85,30.54l.78-1.21h2.05l.09,1.21h2.4l-.64-6.23h-2.56l-4.07,6.23h1.95Zm2.61-4.22l.16,1.65h-1.15l.99-1.65Z"/><path d="m262.13,30.54l.66-2.37h.71l.47,2.37h2.66l-.68-2.64c1.07-.29,1.8-1.01,1.98-1.65.28-1.01-.43-1.94-2.21-1.94h-4.25l-1.76,6.23h2.42Zm1.37-4.86h1.15c.57,0,.78.29.69.6-.09.3-.45.61-1.03.61h-1.15l.34-1.21Z"/><polygon points="202.15 30.54 204.45 30.54 205.8 25.75 207.39 25.75 207.79 24.31 202.31 24.31 201.9 25.75 203.5 25.75 202.15 30.54"/><path d="m272.12,28.82c-.07.23-.54.39-1.04.39-.6,0-1.21-.23-1.13-.81l-2.32.35c-.03,1.33,1.39,1.95,2.95,1.95,1.71,0,3.62-.75,4.01-2.15.63-2.56-3.69-1.67-3.42-2.59.05-.2.45-.33.85-.33.46,0,.95.17,1,.63l2.18-.51c-.27-1.09-1.41-1.55-2.64-1.55-1.72,0-3.56.89-3.89,2.05-.66,2.37,3.68,1.76,3.45,2.57Z"/><polygon points="238.66 30.54 239.1 28.97 236.19 28.97 237.51 24.31 235.02 24.31 233.27 30.54 238.66 30.54"/><path d="m240.7,30.54l.78-1.21h2.05l.09,1.21h2.4l-.64-6.23h-2.56l-4.06,6.23h1.94Zm2.61-4.22l.16,1.65h-1.15l.99-1.65Z"/><polygon points="247.69 30.54 249.98 30.54 250.75 27.83 254.23 24.31 252.1 24.31 250.23 26.25 249.44 24.31 246.88 24.31 248.45 27.83 247.69 30.54"/><polygon points="258.85 30.54 259.28 29.04 255.83 29.04 256.11 28.03 258.85 28.03 259.26 26.6 256.52 26.6 256.78 25.68 260.22 25.68 260.61 24.31 254.76 24.31 253 30.54 258.85 30.54"/><polygon points="136.18 28.1 138.65 28.1 139.05 26.68 136.58 26.68 136.87 25.68 140.14 25.68 140.52 24.31 134.85 24.31 133.09 30.54 135.49 30.54 136.18 28.1"/><path d="m142.75,30.65c1.86,0,4.05-1.1,4.61-3.12.65-2.28-.94-3.35-2.8-3.35s-3.98,1.03-4.64,3.35c-.54,2.06.99,3.12,2.83,3.12Zm-.26-3.12c.38-1.33,1.14-1.93,1.73-1.93.55,0,.96.59.57,1.93-.29,1.04-1.06,1.66-1.64,1.66s-.96-.57-.66-1.66Z"/><path d="m160.19,29.33h2.05l.09,1.21h2.4l-.64-6.23h-2.56l-4.07,6.23h1.95l.78-1.21Zm1.83-3.01l.16,1.65h-1.15l.99-1.65Z"/><path d="m216.32,30.54l.66-2.37h.71l.47,2.37h2.66l-.68-2.64c1.07-.29,1.8-1.01,1.98-1.65.28-1.01-.43-1.94-2.21-1.94h-4.25l-1.76,6.23h2.42Zm1.38-4.86h1.15c.57,0,.78.29.69.6-.09.3-.45.61-1.03.61h-1.15l.34-1.21Z"/><path d="m149.75,30.54l.66-2.37h.71l.47,2.37h2.66l-.68-2.64c1.07-.29,1.8-1.01,1.98-1.65.28-1.01-.43-1.94-2.21-1.94h-4.25l-1.76,6.23h2.42Zm1.38-4.86h1.15c.57,0,.78.29.69.6-.09.3-.45.61-1.03.61h-1.15l.34-1.21Z"/></g><path d="m487.64,32.62c-8.08,0-17.48-.18-25.14,12.67h-.33l-1.59-9.9h-28.38l-18.22,80.48h32.67l8.03-32.44c3.92-15.02,10.81-24.41,23.35-24.41,2.19,0,4.58.02,7.13.38l6.79-26.31c-1.43-.16-2.83-.47-4.31-.47Zm-77.56,72.01l8.69-38.41c4.43-19.6-2.65-35.42-38.68-35.42-33.97,0-47.18,10.19-51.12,27.59h35.17c2.41-7.05,9.32-8.56,14.08-8.56,3.61,0,10.98.78,9.63,6.74-3.48,15.37-63.48-3.01-70.17,34.63-2.65,14.86,13.47,26.17,28.01,26.17s18.53-.83,30.16-9.45l-.35,7.38h35.28l.21-.87c-2.93-2.91-1.98-5.1-.91-9.8Zm-48.02-7.72c-6.73,0-10.19-2.82-9.27-6.9,2.41-10.66,16.61-8.15,28.94-13.33-1.73,11.3-7.69,20.23-19.67,20.23ZM46.31,118.84c18.54,0,32.16-6.59,40.2-13.8l-1.04,11.13h23.48l14.11-62.4h-50.66l-4.95,22.22h16.77c-3.74,7.84-9.19,15.81-24.56,15.81-19.53,0-25.29-15.14-21.67-31.13,4.51-19.91,16.17-33.64,31.43-33.64,12.05,0,19.74,3.9,20.43,13.15h32.07C123.44,12.43,101.1,0,67.81,0,37.51,0,9.38,18.99,1.56,58.59c-7.79,39.57,14.55,60.25,44.75,60.25ZM231.32,35.39l-18,80.48h34.13l18-80.48h-34.13Zm72.75,46.92l6.74-29.79h14.36l3.45-15.88h-14.36l5.41-24.29h-32.47l-5.41,24.29h-13.81l-3.45,15.88h13.31l-7.77,34.34c-6.05,25.64-.19,30.12,40.13,30.12l5.58-23.08h-3.36c-9.51,0-10.05-4.06-8.35-11.59Zm-159.04,35.91c14.11,0,23.19-3.14,34.28-14.42l-2.73,12.07h31.67l18-80.48h-34.13l-8.35,37.83c-2.87,12.7-8.17,22-18.02,22-8.2,0-10.91-5.85-8.35-17.14l9.45-42.69h-34.13l-10.73,48.33c-5.33,23.52,4.33,34.5,23.04,34.5Zm18.24,11.09l1.18-6.59h-21.86l-1.24,6.91h10.01l-12.88,10.59-1.14,6.32h23.34l1.24-6.91h-11.11l12.46-10.32Zm4.2-6.59l-4.28,23.82h9.63l4.28-23.82h-9.63Zm-122.43-.68c-3.65,0-6.72,1.5-9.38,4.36-.72-2.55-2.85-4.36-7.3-4.36-3.55,0-7.08,2.41-8.64,4.23l.65-3.55h-9.05l-4.38,23.82h9.85l2.17-11.77c.53-2.86,1.54-5.27,4.43-5.27,2.61,0,3.06,1.41,2.42,4.91l-2.23,12.14h9.86l2.16-11.77c.53-2.86,1.54-5.27,4.43-5.27,2.61,0,3.06,1.41,2.42,4.91l-2.23,12.14h9.86l2.59-14.09c1.18-6.52-.38-10.43-7.63-10.43Zm175.72,0c-7.78,0-14.65,5-16.06,12.82-1.44,8,3.8,12.36,11.58,12.36,5.65,0,12.11-1.95,14.84-7.86h-9.21c-.95,1.41-2.46,2.09-3.99,2.09-2.55,0-4.43-1.86-3.93-4.68h18.38c1.7-8.64-2.62-14.73-11.61-14.73Zm2.85,9.91h-8.75c.46-2.54,2.36-4.13,5.23-4.13,2.28-.01,3.92,1.94,3.52,4.13Zm-27-9.91c-3.66,0-6.3,1.55-8.99,4.41l.67-3.73h-8.8l-4.28,23.82h9.63l2.18-12.14c.54-3.05,1.67-4.91,4.63-4.91,2.73,0,3,2.09,2.58,4.45l-2.26,12.59h9.63l2.57-14.27c1.18-6.54-1.17-10.22-7.56-10.22Zm-60.82,21l2-11.14c1.02-5.68,1.08-9.86-10.4-9.86-9.58,0-13.77,2.95-14.68,8h9.26c.6-2.04,2.45-2.32,3.79-2.32,1.02,0,3.11.23,2.8,1.95-.8,4.46-17.19-.45-19.13,10.36-.89,4.96,2.79,7.18,7.37,7.18,3.61,0,6.52-.73,9.7-3.23v2.54h9.96l.08-.45c-1.07-.99-.99-1.67-.75-3.03Zm-13.67-1.19c-1.9,0-2.91-.82-2.7-2,.56-3.09,4.59-2.36,8.01-3.86-.36,3.27-1.93,5.86-5.31,5.86Zm-40.91-9.95c1.02-5.68,1.07-9.86-10.41-9.86-9.59,0-13.78,2.95-14.68,8h9.26c.6-2.04,2.45-2.32,3.8-2.32,1.02,0,3.11.23,2.8,1.95-.8,4.46-17.19-.45-19.14,10.36-.89,4.96,2.78,7.18,7.37,7.18,3.61,0,6.52-.73,9.7-3.23v2.54h9.96l.08-.45c-1.07-1-.99-1.68-.75-3.04l2.01-11.13Zm-15.68,9.95c-1.9,0-2.91-.82-2.7-2,.55-3.09,4.59-2.36,8.01-3.86-.35,3.27-1.93,5.86-5.31,5.86Zm37.48-19.13l-.56,3.13c-1.3-2.32-3.76-3.82-6.68-3.82-7.97,0-11.95,6.23-13.01,12.09-1.09,6.09,1.82,11.27,8.53,11.27,3.48,0,5.78-1.23,7.41-2.59l-.35,1.95c-.61,3.41-1.95,4.64-4.72,4.64-.97,0-1.63-.23-1.98-.59s-.46-.77-.41-1.05h-9.68c-.17,3.5,2.84,6.86,11.41,6.86,11.95,0,13.78-5.59,15.06-12.73l3.45-19.18h-8.47v.02Zm-2.71,11.23c-.45,2.55-2.02,5.04-4.96,4.91-2.58-.05-3.39-2.27-2.96-4.64.56-3.09,1.86-5.45,4.77-5.41,3.06,0,3.62,2.5,3.15,5.14Z"/><g><g><polygon points="34.14 156.54 34.14 154.43 27.37 154.43 27.37 156.54 34.14 156.54"/><path d="m36.52,156.47c.7,0,1.27-.57,1.27-1.27s-.57-1.27-1.27-1.27-1.27.57-1.27,1.27c0,.7.57,1.27,1.27,1.27h0Z"/><path d="m42.91,158.92l.78,1.48h-2.19l-2.56-4.91h2.19l.71,1.37h.98c1.85,0,2.09-2.02,2.09-2.02v-2.01h-6.75v-2.11h8.81v3.18s.08,2.94-1.48,4.04c-.57.41-1.74.98-2.58.98h0Z"/><polygon points="55.44 151.64 55.44 149.83 54.38 149.83 54.38 151.64 55.44 151.64"/><polygon points="57.13 151.64 57.13 149.83 56.06 149.83 56.06 151.64 57.13 151.64"/><path d="m49.78,154.56h-1.67v-2.12h2.16l.4-1.73h2.11l-.4,1.73h4.74v5.08c0,1.9-1.75,2.88-3.08,2.88h-.69v-1.9h.39c1.27,0,1.34-1.35,1.34-1.35v-2.59h-3.19l-1.34,5.84h-2.11l1.34-5.84h0Z"/><polygon points="74.19 152.83 74.19 150.72 69.19 150.72 69.19 152.83 74.19 152.83"/><polygon points="63.56 152.83 63.56 150.72 58.74 150.72 58.74 152.83 63.56 152.83"/><polygon points="63.56 155.9 63.56 153.79 58.74 153.79 58.74 155.9 63.56 155.9"/><path d="m67.49,155.73v-2.93h-2.11v2.7c0,2.64-2.6,3-2.6,3h-4.04v1.9h3.9s4.85-.05,4.85-4.67h0Z"/><polygon points="66.52 151.64 66.52 149.83 65.46 149.83 65.46 151.64 66.52 151.64"/><polygon points="68.21 151.64 68.21 149.83 67.14 149.83 67.14 151.64 68.21 151.64"/><path d="m78.26,155.73v-3.27h-2.12v3.04c0,2.64-2.6,3-2.6,3h-4.35v1.9h4.21s4.86-.05,4.86-4.67h0Z"/><polygon points="11.25 158.88 6.84 158.88 6.84 156.77 10.84 156.77 10.37 154.35 6.84 154.35 6.84 152.24 9.96 152.24 9.66 150.72 11.87 150.72 12.16 152.24 16.5 152.24 16.5 154.35 12.58 154.35 13.05 156.77 16.5 156.77 16.5 158.88 13.46 158.88 13.76 160.4 11.55 160.4 11.25 158.88"/><polygon points="14.81 151.64 14.81 149.83 13.74 149.83 13.74 151.64 14.81 151.64"/><polygon points="16.49 151.64 16.49 149.83 15.43 149.83 15.43 151.64 16.49 151.64"/><path d="m23.97,155.67l-3.04-1.52-.94,1.89,3.42,1.72c-.35.33-.92.61-1.84.61h-2.83v2.04h2.8c4.82,0,4.56-4.67,4.56-4.67v-5.01h-6.77s.06,1.99-1.75,2.73v2.39s2.65-.57,3.48-3.15h2.92v2.97h0Z"/></g><polygon points="34.14 156.54 34.14 154.43 27.37 154.43 27.37 156.54 34.14 156.54"/><path d="m36.52,156.47c.7,0,1.27-.57,1.27-1.27s-.57-1.27-1.27-1.27-1.27.57-1.27,1.27c0,.7.57,1.27,1.27,1.27h0Z"/><path d="m42.91,158.92l.78,1.48h-2.19l-2.56-4.91h2.19l.71,1.37h.98c1.85,0,2.09-2.02,2.09-2.02v-2.01h-6.75v-2.11h8.81v3.18s.08,2.94-1.48,4.04c-.57.41-1.74.98-2.58.98h0Z"/><polygon points="55.44 151.64 55.44 149.83 54.38 149.83 54.38 151.64 55.44 151.64"/><polygon points="57.13 151.64 57.13 149.83 56.06 149.83 56.06 151.64 57.13 151.64"/><path d="m49.78,154.56h-1.67v-2.12h2.16l.4-1.73h2.11l-.4,1.73h4.74v5.08c0,1.9-1.75,2.88-3.08,2.88h-.69v-1.9h.39c1.27,0,1.34-1.35,1.34-1.35v-2.59h-3.19l-1.34,5.84h-2.11l1.34-5.84h0Z"/><polygon points="74.19 152.83 74.19 150.72 69.19 150.72 69.19 152.83 74.19 152.83"/><polygon points="63.56 152.83 63.56 150.72 58.74 150.72 58.74 152.83 63.56 152.83"/><polygon points="63.56 155.9 63.56 153.79 58.74 153.79 58.74 155.9 63.56 155.9"/><path d="m67.49,155.73v-2.93h-2.11v2.7c0,2.64-2.6,3-2.6,3h-4.04v1.9h3.9s4.85-.05,4.85-4.67h0Z"/><polygon points="66.52 151.64 66.52 149.83 65.46 149.83 65.46 151.64 66.52 151.64"/><polygon points="68.21 151.64 68.21 149.83 67.14 149.83 67.14 151.64 68.21 151.64"/><path d="m78.26,155.73v-3.27h-2.12v3.04c0,2.64-2.6,3-2.6,3h-4.35v1.9h4.21s4.86-.05,4.86-4.67h0Z"/><polygon points="11.25 158.88 6.84 158.88 6.84 156.77 10.84 156.77 10.37 154.35 6.84 154.35 6.84 152.24 9.96 152.24 9.66 150.72 11.87 150.72 12.16 152.24 16.5 152.24 16.5 154.35 12.58 154.35 13.05 156.77 16.5 156.77 16.5 158.88 13.46 158.88 13.76 160.4 11.55 160.4 11.25 158.88"/><polygon points="14.81 151.64 14.81 149.83 13.74 149.83 13.74 151.64 14.81 151.64"/><polygon points="16.49 151.64 16.49 149.83 15.43 149.83 15.43 151.64 16.49 151.64"/><path d="m23.97,155.67l-3.04-1.52-.94,1.89,3.42,1.72c-.35.33-.92.61-1.84.61h-2.83v2.04h2.8c4.82,0,4.56-4.67,4.56-4.67v-5.01h-6.77s.06,1.99-1.75,2.73v2.39s2.65-.57,3.48-3.15h2.92v2.97h0Z"/></g></svg>