<svg width="161" height="34" viewBox="0 0 161 34" fill="none" xmlns="http://www.w3.org/2000/svg">
<g clip-path="url(#clip0_3_3)">
<path d="M21.7 28.9V25.2C21.7 25.2 21.7 22.6 18.1 22.6C16 22.6 12.9 22.6 12.9 22.6L10.4 33.6H0L7.4 0.5H28.2C28.2 0.5 35.7 1 35.6 9.3C35.5 16.1 29.9 17.7 29.9 17.7C29.9 17.7 28.5 17.9 29.7 18.9C30.9 19.9 32.1 22.1 32.1 22.8C32.1 23.6 32.1 28.8 32.1 28.8H105.5L104.4 33.5H22.4C21.7 33 21.7 28.9 21.7 28.9ZM22.4 7.6H16.3L14.6 15H21.3C21.3 15 25 15.4 25.4 10.6C25.6 7.7 22.4 7.6 22.4 7.6Z" fill="white"/>
<path d="M40.6 0.5H47.8L46.8 5.1H39.6L40.6 0.5Z" fill="white"/>
<path d="M38.9 8H46.0999L42 26.3H34.7L38.9 8Z" fill="white"/>
<path d="M51.4 2.40002H58.2L56.9 8.00002H59.7L58.8 12H56L54.2 20C54.2 20 54 21.5 56.2 21.5C57.5 21.5 57.1 21.5 57.1 21.5L56 26.3H50C50 26.3 46.2 25.8 47.3 20.8C48.4 15.8 49.3 12 49.3 12H46.5L47.4 8.00002H50.2L51.4 2.40002Z" fill="white"/>
<path d="M93.4 14.9C93.3 27.3 81.8 26.6 81.8 26.6C81.8 26.6 72.1 27 72.3 18.9C72.6 5.80001 84.3 6.80001 84.3 6.80001C84.3 6.80001 93.5 7.00001 93.4 14.9ZM84.3 11.5C84.3 11.5 81.2 10.9 80 16.4C78.8 21.9 82.2 22 82.2 22C82.2 22 85 22.8 86.2 16.8C87.1 11.6 84.3 11.5 84.3 11.5Z" fill="white"/>
<path d="M96.6 7.99995H102.4L103.2 9.89995C103.2 9.89995 104.9 7.69995 107.2 7.69995H109.4L108 13.6C108 13.6 102.7 13 101.8 17.2L99.7 26.2999H92.4L96.6 7.99995Z" fill="white"/>
<path d="M65.1999 2.40002H72L70.6999 8.00002H73.5L72.5999 12H69.8L68 20C68 20 67.8 21.5 70 21.5C71.3 21.5 70.9 21.5 70.9 21.5L69.6999 26.3H63.7C63.7 26.3 59.9 25.8 61 20.8C62.1 15.8 63 12 63 12H60.2L61.0999 8.00002H63.9L65.1999 2.40002Z" fill="white"/>
<path d="M119.8 0.5H130.8L123.1 33.6H112.1L119.8 0.5Z" fill="white"/>
<path d="M134.6 0.5H150.5C155.4 0.5 158.2 2 159.4 4.7C160.5 7.3 160.5 9.1 158.6 17C156.9 24.2 154.4 33.6 142.9 33.6H126.9L134.6 0.5ZM139.4 26.8H141.7C144.5 26.8 145.5 24.2 146.1 21.7L148.4 12C149.2 8.7 149.1 6.9 145.7 6.9H144L139.4 26.8Z" fill="white"/>
</g>
<defs>
<clipPath id="clip0_3_3">
<rect width="161" height="34" fill="white"/>
</clipPath>
</defs>
</svg>
